<svg width="392" height="560" viewBox="0 0 392 560" fill="none" xmlns="http://www.w3.org/2000/svg">
<path d="M43.5359 342.182L391.805 223.423L379.541 553.697L91.1363 559.133L43.5359 342.182Z" fill="#CB0F15"/>
<path d="M374.4 425.288C374.4 455.441 341.739 479.863 301.429 479.863C261.12 479.863 228.438 455.441 228.438 425.288C228.438 395.134 261.12 370.67 301.493 370.67C341.865 370.67 374.4 395.155 374.4 425.288Z" fill="white"/>
<path d="M261.457 434.011C261.317 436.335 260.5 438.567 259.106 440.433C257.713 442.298 255.804 443.714 253.615 444.508C251.426 445.301 249.052 445.436 246.788 444.896C244.523 444.357 242.465 443.166 240.869 441.471C239.273 439.776 238.208 437.651 237.805 435.357C237.402 433.064 237.68 430.703 238.603 428.566C239.526 426.428 241.055 424.608 243 423.329C244.946 422.05 247.223 421.368 249.551 421.368C251.165 421.412 252.754 421.774 254.226 422.434C255.699 423.094 257.027 424.038 258.134 425.213C259.24 426.388 260.103 427.771 260.674 429.28C261.244 430.79 261.51 432.398 261.457 434.011Z" fill="#0E0E0E"/>
<path d="M72.1931 434.011C72.1931 464.143 104.875 488.565 145.185 488.565C185.494 488.565 218.176 464.143 218.176 434.011C218.176 403.879 185.494 379.436 145.185 379.436C104.875 379.436 72.1931 403.858 72.1931 434.011Z" fill="white"/>
<path d="M185.094 442.714C185.234 445.038 186.051 447.27 187.444 449.135C188.838 451.001 190.747 452.417 192.936 453.21C195.125 454.003 197.498 454.139 199.763 453.599C202.028 453.059 204.085 451.868 205.681 450.173C207.278 448.478 208.343 446.353 208.745 444.06C209.148 441.767 208.871 439.406 207.948 437.268C207.025 435.131 205.496 433.31 203.55 432.031C201.605 430.752 199.328 430.071 196.999 430.071C195.386 430.114 193.797 430.476 192.324 431.136C190.851 431.796 189.523 432.741 188.417 433.916C187.31 435.091 186.447 436.473 185.877 437.983C185.307 439.493 185.04 441.101 185.094 442.714Z" fill="#0E0E0E"/>
<path d="M344.857 239.142L324.608 298.585L278.546 309.184L295.55 256L344.857 239.142Z" fill="#FF8286"/>
<path d="M100.871 322.543L90.4619 352.486L47.9397 362.284L43.5147 342.14L100.871 322.543Z" fill="#FF8286"/>
<path d="M229.133 278.715L214.13 324.018L152.012 338.305L165.729 300.355L229.133 278.715Z" fill="#FF8286"/>
<path d="M27.3738 267.547L109.742 291.568L164.022 247.065L71.5606 226.099L27.3738 267.547Z" fill="#CB0F15"/>
<path d="M337.841 104.243L313.356 0.171143L225.783 82.1601L322.543 116.549L337.841 104.243Z" fill="#CB0F15"/>
<path d="M284.53 147.903L177.15 127.527L120.784 180.269L206.713 211.707L284.53 147.903Z" fill="#CB0F15"/>
<path d="M283.202 149.209L324.313 115.39L227.468 80.4745L176.433 128.18L283.202 149.209Z" fill="#FF8286"/>
<path d="M121.774 179.278L70.0858 227.595L162.863 248.245L219.187 201.888L121.774 179.278Z" fill="#FF8286"/>
<path d="M0.486938 292.664L44.6316 347.155L52.4913 339.084L111.533 290.472L27.8588 267.062L0.486938 292.664Z" fill="#FF8286"/>
</svg>
